<svg width="81" height="18" viewBox="0 0 81 18" fill="none" xmlns="http://www.w3.org/2000/svg">
<g clip-path="url(#clip0_1196_225)">
<rect width="32" height="18" rx="9" fill="#010123"/>
<g filter="url(#filter0_d_1196_225)">
<mask id="path-2-outside-1_1196_225" maskUnits="userSpaceOnUse" x="17" y="3" width="64" height="12" fill="black">
<rect fill="white" x="17" y="3" width="64" height="12"/>
<path d="M27.208 5C27.652 5 27.976 5.36 27.976 5.768C27.976 5.852 27.952 5.936 27.928 6.02L25.876 11.912C25.708 12.368 25.276 12.68 24.784 12.68H22.192C21.7 12.68 21.28 12.368 21.112 11.912L19.048 6.02C19.024 5.936 19 5.852 19 5.768C19 5.36 19.324 5 19.768 5H22.18C22.504 5 22.792 5.204 22.9 5.516L23.488 7.196L24.076 5.516C24.184 5.204 24.484 5 24.808 5H27.208Z"/>
<path d="M32.3926 7.688V11.528C32.3926 12.164 31.8766 12.68 31.2406 12.68H29.5126C28.8766 12.68 28.3606 12.164 28.3606 11.528V7.688C28.3606 7.052 28.8766 6.536 29.5126 6.536H31.2406C31.8766 6.536 32.3926 7.052 32.3926 7.688ZM28.7446 5.768C28.5286 5.768 28.3606 5.6 28.3606 5.384C28.3606 5.168 28.5286 5 28.7446 5H32.0086C32.2246 5 32.3926 5.168 32.3926 5.384C32.3926 5.6 32.2246 5.768 32.0086 5.768H28.7446Z"/>
<path d="M40.8453 6.536C41.4813 6.536 41.9972 7.052 41.9972 7.688V11.528C41.9972 12.164 41.4813 12.68 40.8453 12.68H39.1173C38.4813 12.68 37.9653 12.164 37.9653 11.528V7.688C37.9653 7.472 37.7972 7.304 37.5812 7.304C37.3652 7.304 37.1973 7.472 37.1973 7.688V11.528C37.1973 12.164 36.6812 12.68 36.0452 12.68H34.3173C33.6813 12.68 33.1652 12.164 33.1652 11.528V7.688C33.1652 7.052 33.6813 6.536 34.3173 6.536H40.8453Z"/>
<path d="M46.7949 7.688V11.528C46.7949 12.164 46.2789 12.68 45.6429 12.68H43.9149C43.2789 12.68 42.7629 12.164 42.7629 11.528V7.688C42.7629 7.052 43.2789 6.536 43.9149 6.536H45.6429C46.2789 6.536 46.7949 7.052 46.7949 7.688ZM43.1469 5.768C42.9309 5.768 42.7629 5.6 42.7629 5.384C42.7629 5.168 42.9309 5 43.1469 5H46.4109C46.6269 5 46.7949 5.168 46.7949 5.384C46.7949 5.6 46.6269 5.768 46.4109 5.768H43.1469Z"/>
<path d="M51.9836 8.456C51.7676 8.456 51.5996 8.624 51.5996 8.84V10.376C51.5996 10.592 51.7676 10.76 51.9836 10.76H55.0556C55.4756 10.76 55.8236 11.108 55.8236 11.528V11.912C55.8236 12.332 55.4756 12.68 55.0556 12.68H48.7196C48.0836 12.68 47.5676 12.164 47.5676 11.528V7.688C47.5676 7.052 48.0836 6.536 48.7196 6.536H55.0556C55.4756 6.536 55.8236 6.884 55.8236 7.304V7.688C55.8236 8.108 55.4756 8.456 55.0556 8.456H51.9836Z"/>
<path d="M60.4824 7.688V11.528C60.4824 12.164 59.9664 12.68 59.3304 12.68H57.6024C56.9664 12.68 56.4504 12.164 56.4504 11.528V7.688C56.4504 7.052 56.9664 6.536 57.6024 6.536H59.3304C59.9664 6.536 60.4824 7.052 60.4824 7.688ZM56.8344 5.768C56.6184 5.768 56.4504 5.6 56.4504 5.384C56.4504 5.168 56.6184 5 56.8344 5H60.0984C60.3144 5 60.4824 5.168 60.4824 5.384C60.4824 5.6 60.3144 5.768 60.0984 5.768H56.8344Z"/>
<path d="M68.9351 6.536C69.5711 6.536 70.0871 7.052 70.0871 7.688V11.528C70.0871 12.164 69.5711 12.68 68.9351 12.68H62.4071C61.7711 12.68 61.2551 12.164 61.2551 11.528V7.688C61.2551 7.052 61.7711 6.536 62.4071 6.536H64.1351C64.7711 6.536 65.2871 7.052 65.2871 7.688V11.528C65.2871 11.744 65.4551 11.912 65.6711 11.912C65.8871 11.912 66.0551 11.744 66.0551 11.528V7.688C66.0551 7.052 66.5711 6.536 67.2071 6.536H68.9351Z"/>
<path d="M75.1727 8.456C74.9567 8.456 74.7887 8.624 74.7887 8.84C74.7887 9.056 74.9567 9.224 75.1727 9.224H77.8608C78.4968 9.224 79.0127 9.74 79.0127 10.376V11.528C79.0127 12.164 78.4968 12.68 77.8608 12.68H71.5247C71.1047 12.68 70.7567 12.332 70.7567 11.912V11.528C70.7567 11.108 71.1047 10.76 71.5247 10.76H74.5967C74.8127 10.76 74.9808 10.592 74.9808 10.376C74.9808 10.16 74.8127 9.992 74.5967 9.992H71.9087C71.2727 9.992 70.7567 9.476 70.7567 8.84V7.688C70.7567 7.052 71.2727 6.536 71.9087 6.536H78.2448C78.6648 6.536 79.0127 6.884 79.0127 7.304V7.688C79.0127 8.108 78.6648 8.456 78.2448 8.456H75.1727Z"/>
</mask>
<path d="M27.208 5C27.652 5 27.976 5.36 27.976 5.768C27.976 5.852 27.952 5.936 27.928 6.02L25.876 11.912C25.708 12.368 25.276 12.68 24.784 12.68H22.192C21.7 12.68 21.28 12.368 21.112 11.912L19.048 6.02C19.024 5.936 19 5.852 19 5.768C19 5.36 19.324 5 19.768 5H22.18C22.504 5 22.792 5.204 22.9 5.516L23.488 7.196L24.076 5.516C24.184 5.204 24.484 5 24.808 5H27.208Z" fill="#E6DAF3"/>
<path d="M32.3926 7.688V11.528C32.3926 12.164 31.8766 12.68 31.2406 12.68H29.5126C28.8766 12.68 28.3606 12.164 28.3606 11.528V7.688C28.3606 7.052 28.8766 6.536 29.5126 6.536H31.2406C31.8766 6.536 32.3926 7.052 32.3926 7.688ZM28.7446 5.768C28.5286 5.768 28.3606 5.6 28.3606 5.384C28.3606 5.168 28.5286 5 28.7446 5H32.0086C32.2246 5 32.3926 5.168 32.3926 5.384C32.3926 5.6 32.2246 5.768 32.0086 5.768H28.7446Z" fill="#E6DAF3"/>
<path d="M40.8453 6.536C41.4813 6.536 41.9972 7.052 41.9972 7.688V11.528C41.9972 12.164 41.4813 12.68 40.8453 12.68H39.1173C38.4813 12.68 37.9653 12.164 37.9653 11.528V7.688C37.9653 7.472 37.7972 7.304 37.5812 7.304C37.3652 7.304 37.1973 7.472 37.1973 7.688V11.528C37.1973 12.164 36.6812 12.68 36.0452 12.68H34.3173C33.6813 12.68 33.1652 12.164 33.1652 11.528V7.688C33.1652 7.052 33.6813 6.536 34.3173 6.536H40.8453Z" fill="#E6DAF3"/>
<path d="M46.7949 7.688V11.528C46.7949 12.164 46.2789 12.68 45.6429 12.68H43.9149C43.2789 12.68 42.7629 12.164 42.7629 11.528V7.688C42.7629 7.052 43.2789 6.536 43.9149 6.536H45.6429C46.2789 6.536 46.7949 7.052 46.7949 7.688ZM43.1469 5.768C42.9309 5.768 42.7629 5.6 42.7629 5.384C42.7629 5.168 42.9309 5 43.1469 5H46.4109C46.6269 5 46.7949 5.168 46.7949 5.384C46.7949 5.6 46.6269 5.768 46.4109 5.768H43.1469Z" fill="#E6DAF3"/>
<path d="M51.9836 8.456C51.7676 8.456 51.5996 8.624 51.5996 8.84V10.376C51.5996 10.592 51.7676 10.76 51.9836 10.76H55.0556C55.4756 10.76 55.8236 11.108 55.8236 11.528V11.912C55.8236 12.332 55.4756 12.68 55.0556 12.68H48.7196C48.0836 12.68 47.5676 12.164 47.5676 11.528V7.688C47.5676 7.052 48.0836 6.536 48.7196 6.536H55.0556C55.4756 6.536 55.8236 6.884 55.8236 7.304V7.688C55.8236 8.108 55.4756 8.456 55.0556 8.456H51.9836Z" fill="#E6DAF3"/>
<path d="M60.4824 7.688V11.528C60.4824 12.164 59.9664 12.68 59.3304 12.68H57.6024C56.9664 12.68 56.4504 12.164 56.4504 11.528V7.688C56.4504 7.052 56.9664 6.536 57.6024 6.536H59.3304C59.9664 6.536 60.4824 7.052 60.4824 7.688ZM56.8344 5.768C56.6184 5.768 56.4504 5.6 56.4504 5.384C56.4504 5.168 56.6184 5 56.8344 5H60.0984C60.3144 5 60.4824 5.168 60.4824 5.384C60.4824 5.6 60.3144 5.768 60.0984 5.768H56.8344Z" fill="#E6DAF3"/>
<path d="M68.9351 6.536C69.5711 6.536 70.0871 7.052 70.0871 7.688V11.528C70.0871 12.164 69.5711 12.68 68.9351 12.68H62.4071C61.7711 12.68 61.2551 12.164 61.2551 11.528V7.688C61.2551 7.052 61.7711 6.536 62.4071 6.536H64.1351C64.7711 6.536 65.2871 7.052 65.2871 7.688V11.528C65.2871 11.744 65.4551 11.912 65.6711 11.912C65.8871 11.912 66.0551 11.744 66.0551 11.528V7.688C66.0551 7.052 66.5711 6.536 67.2071 6.536H68.9351Z" fill="#E6DAF3"/>
<path d="M75.1727 8.456C74.9567 8.456 74.7887 8.624 74.7887 8.84C74.7887 9.056 74.9567 9.224 75.1727 9.224H77.8608C78.4968 9.224 79.0127 9.74 79.0127 10.376V11.528C79.0127 12.164 78.4968 12.68 77.8608 12.68H71.5247C71.1047 12.68 70.7567 12.332 70.7567 11.912V11.528C70.7567 11.108 71.1047 10.76 71.5247 10.76H74.5967C74.8127 10.76 74.9808 10.592 74.9808 10.376C74.9808 10.16 74.8127 9.992 74.5967 9.992H71.9087C71.2727 9.992 70.7567 9.476 70.7567 8.84V7.688C70.7567 7.052 71.2727 6.536 71.9087 6.536H78.2448C78.6648 6.536 79.0127 6.884 79.0127 7.304V7.688C79.0127 8.108 78.6648 8.456 78.2448 8.456H75.1727Z" fill="#E6DAF3"/>
<path d="M27.208 5C27.652 5 27.976 5.36 27.976 5.768C27.976 5.852 27.952 5.936 27.928 6.02L25.876 11.912C25.708 12.368 25.276 12.68 24.784 12.68H22.192C21.7 12.68 21.28 12.368 21.112 11.912L19.048 6.02C19.024 5.936 19 5.852 19 5.768C19 5.36 19.324 5 19.768 5H22.18C22.504 5 22.792 5.204 22.9 5.516L23.488 7.196L24.076 5.516C24.184 5.204 24.484 5 24.808 5H27.208Z" stroke="#010123" stroke-width="3" stroke-linejoin="round" mask="url(#path-2-outside-1_1196_225)"/>
<path d="M32.3926 7.688V11.528C32.3926 12.164 31.8766 12.68 31.2406 12.68H29.5126C28.8766 12.68 28.3606 12.164 28.3606 11.528V7.688C28.3606 7.052 28.8766 6.536 29.5126 6.536H31.2406C31.8766 6.536 32.3926 7.052 32.3926 7.688ZM28.7446 5.768C28.5286 5.768 28.3606 5.6 28.3606 5.384C28.3606 5.168 28.5286 5 28.7446 5H32.0086C32.2246 5 32.3926 5.168 32.3926 5.384C32.3926 5.6 32.2246 5.768 32.0086 5.768H28.7446Z" stroke="#010123" stroke-width="3" stroke-linejoin="round" mask="url(#path-2-outside-1_1196_225)"/>
<path d="M40.8453 6.536C41.4813 6.536 41.9972 7.052 41.9972 7.688V11.528C41.9972 12.164 41.4813 12.68 40.8453 12.68H39.1173C38.4813 12.68 37.9653 12.164 37.9653 11.528V7.688C37.9653 7.472 37.7972 7.304 37.5812 7.304C37.3652 7.304 37.1973 7.472 37.1973 7.688V11.528C37.1973 12.164 36.6812 12.68 36.0452 12.68H34.3173C33.6813 12.68 33.1652 12.164 33.1652 11.528V7.688C33.1652 7.052 33.6813 6.536 34.3173 6.536H40.8453Z" stroke="#010123" stroke-width="3" stroke-linejoin="round" mask="url(#path-2-outside-1_1196_225)"/>
<path d="M46.7949 7.688V11.528C46.7949 12.164 46.2789 12.68 45.6429 12.68H43.9149C43.2789 12.68 42.7629 12.164 42.7629 11.528V7.688C42.7629 7.052 43.2789 6.536 43.9149 6.536H45.6429C46.2789 6.536 46.7949 7.052 46.7949 7.688ZM43.1469 5.768C42.9309 5.768 42.7629 5.6 42.7629 5.384C42.7629 5.168 42.9309 5 43.1469 5H46.4109C46.6269 5 46.7949 5.168 46.7949 5.384C46.7949 5.6 46.6269 5.768 46.4109 5.768H43.1469Z" stroke="#010123" stroke-width="3" stroke-linejoin="round" mask="url(#path-2-outside-1_1196_225)"/>
<path d="M51.9836 8.456C51.7676 8.456 51.5996 8.624 51.5996 8.84V10.376C51.5996 10.592 51.7676 10.76 51.9836 10.76H55.0556C55.4756 10.76 55.8236 11.108 55.8236 11.528V11.912C55.8236 12.332 55.4756 12.68 55.0556 12.68H48.7196C48.0836 12.68 47.5676 12.164 47.5676 11.528V7.688C47.5676 7.052 48.0836 6.536 48.7196 6.536H55.0556C55.4756 6.536 55.8236 6.884 55.8236 7.304V7.688C55.8236 8.108 55.4756 8.456 55.0556 8.456H51.9836Z" stroke="#010123" stroke-width="3" stroke-linejoin="round" mask="url(#path-2-outside-1_1196_225)"/>
<path d="M60.4824 7.688V11.528C60.4824 12.164 59.9664 12.68 59.3304 12.68H57.6024C56.9664 12.68 56.4504 12.164 56.4504 11.528V7.688C56.4504 7.052 56.9664 6.536 57.6024 6.536H59.3304C59.9664 6.536 60.4824 7.052 60.4824 7.688ZM56.8344 5.768C56.6184 5.768 56.4504 5.6 56.4504 5.384C56.4504 5.168 56.6184 5 56.8344 5H60.0984C60.3144 5 60.4824 5.168 60.4824 5.384C60.4824 5.6 60.3144 5.768 60.0984 5.768H56.8344Z" stroke="#010123" stroke-width="3" stroke-linejoin="round" mask="url(#path-2-outside-1_1196_225)"/>
<path d="M68.9351 6.536C69.5711 6.536 70.0871 7.052 70.0871 7.688V11.528C70.0871 12.164 69.5711 12.68 68.9351 12.68H62.4071C61.7711 12.68 61.2551 12.164 61.2551 11.528V7.688C61.2551 7.052 61.7711 6.536 62.4071 6.536H64.1351C64.7711 6.536 65.2871 7.052 65.2871 7.688V11.528C65.2871 11.744 65.4551 11.912 65.6711 11.912C65.8871 11.912 66.0551 11.744 66.0551 11.528V7.688C66.0551 7.052 66.5711 6.536 67.2071 6.536H68.9351Z" stroke="#010123" stroke-width="3" stroke-linejoin="round" mask="url(#path-2-outside-1_1196_225)"/>
<path d="M75.1727 8.456C74.9567 8.456 74.7887 8.624 74.7887 8.84C74.7887 9.056 74.9567 9.224 75.1727 9.224H77.8608C78.4968 9.224 79.0127 9.74 79.0127 10.376V11.528C79.0127 12.164 78.4968 12.68 77.8608 12.68H71.5247C71.1047 12.68 70.7567 12.332 70.7567 11.912V11.528C70.7567 11.108 71.1047 10.76 71.5247 10.76H74.5967C74.8127 10.76 74.9808 10.592 74.9808 10.376C74.9808 10.16 74.8127 9.992 74.5967 9.992H71.9087C71.2727 9.992 70.7567 9.476 70.7567 8.84V7.688C70.7567 7.052 71.2727 6.536 71.9087 6.536H78.2448C78.6648 6.536 79.0127 6.884 79.0127 7.304V7.688C79.0127 8.108 78.6648 8.456 78.2448 8.456H75.1727Z" stroke="#010123" stroke-width="3" stroke-linejoin="round" mask="url(#path-2-outside-1_1196_225)"/>
</g>
<path d="M7.276 9.889C7.393 10.006 7.458 10.175 7.458 10.331C7.458 10.487 7.393 10.656 7.276 10.773L6.977 11.072C6.86 11.189 6.691 11.254 6.535 11.254C6.379 11.254 6.21 11.189 6.093 11.072L4.182 9.161C4.065 9.044 4 8.875 4 8.719C4 8.563 4.065 8.394 4.182 8.277L6.093 6.366C6.21 6.249 6.379 6.184 6.535 6.184C6.691 6.184 6.86 6.249 6.977 6.366L7.276 6.665C7.393 6.782 7.458 6.951 7.458 7.107C7.458 7.263 7.393 7.432 7.276 7.549L6.093 8.719L7.276 9.889Z" fill="#E6DAF3"/>
<path d="M11.9703 4.026C12.1393 4.091 12.2433 4.247 12.2433 4.416C12.2433 4.468 12.2303 4.507 12.2173 4.559L9.08432 13.165C9.01932 13.334 8.86332 13.438 8.69432 13.438C8.64232 13.438 8.60332 13.425 8.55132 13.412C8.38232 13.347 8.27832 13.191 8.27832 13.022C8.27832 12.97 8.29132 12.931 8.30432 12.879L11.4373 4.273C11.5023 4.104 11.6583 4 11.8273 4C11.8793 4 11.9183 4.013 11.9703 4.026Z" fill="#E6DAF3"/>
<path d="M16.3405 8.277C16.4575 8.394 16.5225 8.563 16.5225 8.719C16.5225 8.875 16.4575 9.044 16.3405 9.161L14.4295 11.072C14.3125 11.189 14.1435 11.254 13.9875 11.254C13.8315 11.254 13.6625 11.189 13.5455 11.072L13.2465 10.773C13.1295 10.656 13.0645 10.487 13.0645 10.331C13.0645 10.175 13.1295 10.006 13.2465 9.889L14.4295 8.719L13.2465 7.549C13.1295 7.432 13.0645 7.263 13.0645 7.107C13.0645 6.951 13.1295 6.782 13.2465 6.665L13.5455 6.366C13.6625 6.249 13.8315 6.184 13.9875 6.184C14.1435 6.184 14.3125 6.249 14.4295 6.366L16.3405 8.277Z" fill="#E6DAF3"/>
</g>
<defs>
<filter id="filter0_d_1196_225" x="17.5" y="3.5" width="63.0127" height="12.6799" filterUnits="userSpaceOnUse" color-interpolation-filters="sRGB">
<feFlood flood-opacity="0" result="BackgroundImageFix"/>
<feColorMatrix in="SourceAlpha" type="matrix" values="0 0 0 0 0 0 0 0 0 0 0 0 0 0 0 0 0 0 127 0" result="hardAlpha"/>
<feOffset dy="2"/>
<feComposite in2="hardAlpha" operator="out"/>
<feColorMatrix type="matrix" values="0 0 0 0 0.00392157 0 0 0 0 0.00392157 0 0 0 0 0.137255 0 0 0 1 0"/>
<feBlend mode="normal" in2="BackgroundImageFix" result="effect1_dropShadow_1196_225"/>
<feBlend mode="normal" in="SourceGraphic" in2="effect1_dropShadow_1196_225" result="shape"/>
</filter>
<clipPath id="clip0_1196_225">
<rect width="81" height="18" fill="white"/>
</clipPath>
</defs>
</svg>
